<svg width="18" height="18" viewBox="0 0 18 18" fill="none" xmlns="http://www.w3.org/2000/svg">
<path d="M9.35327 15.6933C8.59011 15.6933 7.88272 15.5055 7.23111 15.1298C6.57949 14.754 6.06582 14.2375 5.69012 13.58H3.71765V12.1711H5.197C5.16178 11.9362 5.14123 11.7014 5.13536 11.4666C5.12949 11.2318 5.12656 10.997 5.12656 10.7622H3.71765V9.35325H5.12656C5.12656 9.11843 5.12949 8.88362 5.13536 8.6488C5.14123 8.41398 5.16178 8.17916 5.197 7.94435H3.71765V6.53544H5.69012C5.85449 6.2654 6.03941 6.01297 6.24487 5.77816C6.45034 5.54334 6.68809 5.33788 6.95813 5.16176L5.83101 3.99942L6.81724 3.01318L8.33181 4.52776C8.66056 4.42209 8.99517 4.36925 9.33566 4.36925C9.67614 4.36925 10.0108 4.42209 10.3395 4.52776L11.8893 3.01318L12.8755 3.99942L11.7132 5.16176C11.9832 5.33788 12.2268 5.5404 12.444 5.76935C12.6613 5.9983 12.852 6.25366 13.0164 6.53544H14.9889V7.94435H13.5095C13.5448 8.17916 13.5653 8.41398 13.5712 8.6488C13.577 8.88362 13.58 9.11843 13.58 9.35325H14.9889V10.7622H13.58C13.58 10.997 13.577 11.2318 13.5712 11.4666C13.5653 11.7014 13.5448 11.9362 13.5095 12.1711H14.9889V13.58H13.0164C12.6407 14.2375 12.127 14.754 11.4754 15.1298C10.8238 15.5055 10.1164 15.6933 9.35327 15.6933ZM7.94436 12.1711H10.7622V10.7622H7.94436V12.1711ZM7.94436 9.35325H10.7622V7.94435H7.94436V9.35325Z" fill="#8317A9"/>
</svg>
