<svg width="15" height="15" viewBox="0 0 15 15" fill="none" xmlns="http://www.w3.org/2000/svg">
<path d="M7.5 13.125C6.72187 13.125 5.99062 12.9773 5.30625 12.682C4.62187 12.3867 4.02656 11.9859 3.52031 11.4797C3.01406 10.9734 2.61328 10.3781 2.31797 9.69375C2.02266 9.00937 1.875 8.27812 1.875 7.5C1.875 6.72187 2.02266 5.99062 2.31797 5.30625C2.61328 4.62187 3.01406 4.02656 3.52031 3.52031C4.02656 3.01406 4.62187 2.61328 5.30625 2.31797C5.99062 2.02266 6.72187 1.875 7.5 1.875C8.10938 1.875 8.68594 1.96406 9.22969 2.14219C9.77344 2.32031 10.275 2.56875 10.7344 2.8875L9.91875 3.71719C9.5625 3.49219 9.18281 3.31641 8.77969 3.18984C8.37656 3.06328 7.95 3 7.5 3C6.25312 3 5.19141 3.43828 4.31484 4.31484C3.43828 5.19141 3 6.25312 3 7.5C3 8.74687 3.43828 9.80859 4.31484 10.6852C5.19141 11.5617 6.25312 12 7.5 12C8.74687 12 9.80859 11.5617 10.6852 10.6852C11.5617 9.80859 12 8.74687 12 7.5C12 7.33125 11.9906 7.1625 11.9719 6.99375C11.9531 6.825 11.925 6.66094 11.8875 6.50156L12.8016 5.5875C12.9047 5.8875 12.9844 6.19688 13.0406 6.51562C13.0969 6.83437 13.125 7.1625 13.125 7.5C13.125 8.27812 12.9773 9.00937 12.682 9.69375C12.3867 10.3781 11.9859 10.9734 11.4797 11.4797C10.9734 11.9859 10.3781 12.3867 9.69375 12.682C9.00937 12.9773 8.27812 13.125 7.5 13.125ZM6.7125 10.0875L4.32187 7.69687L5.10938 6.90937L6.7125 8.5125L12.3375 2.87344L13.125 3.66094L6.7125 10.0875Z" fill="black"/>
</svg>
