<svg width="17" height="17" viewBox="0 0 17 17" fill="none" xmlns="http://www.w3.org/2000/svg">
<path d="M2.125 14.875V11.8646L11.475 2.53229C11.6167 2.40243 11.7731 2.30208 11.9443 2.23125C12.1155 2.16042 12.2955 2.125 12.4844 2.125C12.6733 2.125 12.8562 2.16042 13.0333 2.23125C13.2104 2.30208 13.3639 2.40833 13.4937 2.55L14.4677 3.54167C14.6094 3.67153 14.7127 3.825 14.7776 4.00208C14.8425 4.17917 14.875 4.35625 14.875 4.53333C14.875 4.72222 14.8425 4.90226 14.7776 5.07344C14.7127 5.24462 14.6094 5.40104 14.4677 5.54271L5.13542 14.875H2.125ZM12.4667 5.525L13.4583 4.53333L12.4667 3.54167L11.475 4.53333L12.4667 5.525Z" fill="#AB7E26"/>
</svg>
