<svg width="18" height="18" viewBox="0 0 18 18" fill="none" xmlns="http://www.w3.org/2000/svg">
<path d="M9 12C9.9375 12 10.7344 11.6719 11.3906 11.0156C12.0469 10.3594 12.375 9.5625 12.375 8.625C12.375 7.6875 12.0469 6.89063 11.3906 6.23438C10.7344 5.57812 9.9375 5.25 9 5.25C8.0625 5.25 7.26563 5.57812 6.60938 6.23438C5.95312 6.89063 5.625 7.6875 5.625 8.625C5.625 9.5625 5.95312 10.3594 6.60938 11.0156C7.26563 11.6719 8.0625 12 9 12ZM9 10.65C8.4375 10.65 7.95938 10.4531 7.56563 10.0594C7.17188 9.66563 6.975 9.1875 6.975 8.625C6.975 8.0625 7.17188 7.58438 7.56563 7.19063C7.95938 6.79688 8.4375 6.6 9 6.6C9.5625 6.6 10.0406 6.79688 10.4344 7.19063C10.8281 7.58438 11.025 8.0625 11.025 8.625C11.025 9.1875 10.8281 9.66563 10.4344 10.0594C10.0406 10.4531 9.5625 10.65 9 10.65ZM9 14.25C7.175 14.25 5.5125 13.7406 4.0125 12.7219C2.5125 11.7031 1.425 10.3375 0.75 8.625C1.425 6.9125 2.5125 5.54688 4.0125 4.52813C5.5125 3.50938 7.175 3 9 3C10.825 3 12.4875 3.50938 13.9875 4.52813C15.4875 5.54688 16.575 6.9125 17.25 8.625C16.575 10.3375 15.4875 11.7031 13.9875 12.7219C12.4875 13.7406 10.825 14.25 9 14.25Z" fill="#E39522"/>
</svg>
