<svg width="36" height="36" viewBox="0 0 36 36" fill="none" xmlns="http://www.w3.org/2000/svg">
<path d="M8.775 25.65C10.05 24.675 11.475 23.9062 13.05 23.3438C14.625 22.7812 16.275 22.5 18 22.5C19.725 22.5 21.375 22.7812 22.95 23.3438C24.525 23.9062 25.95 24.675 27.225 25.65C28.1 24.625 28.7813 23.4625 29.2688 22.1625C29.7563 20.8625 30 19.475 30 18C30 14.675 28.8313 11.8438 26.4938 9.50625C24.1562 7.16875 21.325 6 18 6C14.675 6 11.8438 7.16875 9.50625 9.50625C7.16875 11.8438 6 14.675 6 18C6 19.475 6.24375 20.8625 6.73125 22.1625C7.21875 23.4625 7.9 24.625 8.775 25.65ZM18 19.5C16.525 19.5 15.2813 18.9938 14.2688 17.9813C13.2563 16.9688 12.75 15.725 12.75 14.25C12.75 12.775 13.2563 11.5312 14.2688 10.5188C15.2813 9.50625 16.525 9 18 9C19.475 9 20.7188 9.50625 21.7313 10.5188C22.7438 11.5312 23.25 12.775 23.25 14.25C23.25 15.725 22.7438 16.9688 21.7313 17.9813C20.7188 18.9938 19.475 19.5 18 19.5ZM18 33C15.925 33 13.975 32.6063 12.15 31.8188C10.325 31.0313 8.7375 29.9625 7.3875 28.6125C6.0375 27.2625 4.96875 25.675 4.18125 23.85C3.39375 22.025 3 20.075 3 18C3 15.925 3.39375 13.975 4.18125 12.15C4.96875 10.325 6.0375 8.7375 7.3875 7.3875C8.7375 6.0375 10.325 4.96875 12.15 4.18125C13.975 3.39375 15.925 3 18 3C20.075 3 22.025 3.39375 23.85 4.18125C25.675 4.96875 27.2625 6.0375 28.6125 7.3875C29.9625 8.7375 31.0313 10.325 31.8188 12.15C32.6063 13.975 33 15.925 33 18C33 20.075 32.6063 22.025 31.8188 23.85C31.0313 25.675 29.9625 27.2625 28.6125 28.6125C27.2625 29.9625 25.675 31.0313 23.85 31.8188C22.025 32.6063 20.075 33 18 33Z" fill="black"/>
</svg>
