<svg width="270" height="270" viewBox="0 0 270 270" fill="none" xmlns="http://www.w3.org/2000/svg">
<path d="M220.5 236.25L149.625 165.375C144 169.875 137.531 173.438 130.219 176.062C122.906 178.687 115.125 180 106.875 180C86.4375 180 69.1406 172.922 54.9844 158.766C40.8281 144.609 33.75 127.312 33.75 106.875C33.75 86.4375 40.8281 69.1406 54.9844 54.9844C69.1406 40.8281 86.4375 33.75 106.875 33.75C127.312 33.75 144.609 40.8281 158.766 54.9844C172.922 69.1406 180 86.4375 180 106.875C180 115.125 178.687 122.906 176.062 130.219C173.438 137.531 169.875 144 165.375 149.625L236.25 220.5L220.5 236.25ZM106.875 157.5C120.938 157.5 132.891 152.578 142.734 142.734C152.578 132.891 157.5 120.938 157.5 106.875C157.5 92.8125 152.578 80.8594 142.734 71.0156C132.891 61.1719 120.938 56.25 106.875 56.25C92.8125 56.25 80.8594 61.1719 71.0156 71.0156C61.1719 80.8594 56.25 92.8125 56.25 106.875C56.25 120.938 61.1719 132.891 71.0156 142.734C80.8594 152.578 92.8125 157.5 106.875 157.5Z" fill="#E69F13"/>
</svg>
