<svg width="19" height="18" viewBox="0 0 19 18" fill="none" xmlns="http://www.w3.org/2000/svg">
<path d="M5.85625 15.75C4.71875 15.75 3.75 15.35 2.95 14.55C2.15 13.75 1.75 12.7812 1.75 11.6438C1.75 10.5688 2.10938 9.64062 2.82812 8.85938C3.54688 8.07812 4.44375 7.64375 5.51875 7.55625L2.5 1.5H7.75L9.25 4.5L10.75 1.5H16L13 7.51875C14.0625 7.61875 14.9531 8.05938 15.6719 8.84063C16.3906 9.62188 16.75 10.55 16.75 11.625C16.75 12.775 16.35 13.75 15.55 14.55C14.75 15.35 13.775 15.75 12.625 15.75C12.5125 15.75 12.3969 15.7469 12.2781 15.7406C12.1594 15.7344 12.0438 15.7188 11.9313 15.6938C12.6188 15.2438 13.1562 14.6594 13.5438 13.9406C13.9313 13.2219 14.125 12.45 14.125 11.625C14.125 10.2625 13.6531 9.10938 12.7094 8.16563C11.7656 7.22188 10.6125 6.75 9.25 6.75C7.8875 6.75 6.73438 7.22188 5.79063 8.16563C4.84688 9.10938 4.375 10.2625 4.375 11.625C4.375 12.475 4.55 13.275 4.9 14.025C5.25 14.775 5.8 15.3313 6.55 15.6938C6.4375 15.7188 6.32188 15.7344 6.20312 15.7406C6.08438 15.7469 5.96875 15.75 5.85625 15.75ZM9.25 15C8.3125 15 7.51562 14.6719 6.85938 14.0156C6.20312 13.3594 5.875 12.5625 5.875 11.625C5.875 10.6875 6.20312 9.89062 6.85938 9.23438C7.51562 8.57813 8.3125 8.25 9.25 8.25C10.1875 8.25 10.9844 8.57813 11.6406 9.23438C12.2969 9.89062 12.625 10.6875 12.625 11.625C12.625 12.5625 12.2969 13.3594 11.6406 14.0156C10.9844 14.6719 10.1875 15 9.25 15ZM7.8625 13.6875L9.25 12.6375L10.6375 13.6875L10.1125 11.9813L11.5 10.9875H9.79375L9.25 9.1875L8.70625 10.9875H7L8.3875 11.9813L7.8625 13.6875Z" fill="#553608"/>
</svg>
